<svg xmlns="http://www.w3.org/2000/svg" viewBox="0 0 524.73 241.5"><defs><style>.a{fill:#414647;}.b{fill:#1d75ef;}</style></defs><path class="a" d="M181.26,0a7,7,0,0,0-4.78,1.89L151.07,25.71,127.88,2.92a6.79,6.79,0,0,0-9.41-.13L93.86,25.71l-23-23.66a6.74,6.74,0,0,0-9.52-.16L37.29,25.07,14.87,2.56A8.7,8.7,0,0,0,0,8.7V222.27A19.23,19.23,0,0,0,19.23,241.5H169a19.23,19.23,0,0,0,19.23-19.23V7A7,7,0,0,0,181.26,0ZM163.82,212.65A13.31,13.31,0,0,1,150.51,226h0a13.31,13.31,0,0,1-13.31-13.31V194a4.31,4.31,0,0,0-4.32-4.32H26.14v-141H163.82Z"/><rect class="b" x="45" y="79.29" width="49.98" height="20.68" rx="4.93"/><rect class="b" x="45" y="129.21" width="49.98" height="20.68" rx="4.93"/><circle class="b" cx="130.29" cy="88.07" r="15.11"/><circle class="b" cx="130.29" cy="139.55" r="15.11"/><path class="b" d="M217.2,78V16.36h24.66a27.82,27.82,0,0,1,11.33,2A15,15,0,0,1,260,24a14.76,14.76,0,0,1,2.29,8.19,13.2,13.2,0,0,1-1.45,6.33,12.28,12.28,0,0,1-3.95,4.45,16.13,16.13,0,0,1-5.73,2.45V46a13.87,13.87,0,0,1,6.6,2,14.1,14.1,0,0,1,5,5.13,15.25,15.25,0,0,1,1.92,7.83,16,16,0,0,1-2.42,8.74,16.51,16.51,0,0,1-7.14,6.06A27.28,27.28,0,0,1,243.51,78Zm13-35.81h9.65a11.44,11.44,0,0,0,4.77-1A8,8,0,0,0,248,38.5a7.16,7.16,0,0,0,1.22-4.18,6.78,6.78,0,0,0-2.37-5.39,9.91,9.91,0,0,0-6.69-2h-9.89Zm0,25.17h10.61q5.44,0,7.94-2.09a6.91,6.91,0,0,0,2.5-5.58,8.08,8.08,0,0,0-4.74-7.58A12.14,12.14,0,0,0,241.14,51H230.22Z"/><path class="b" d="M294,78.86A24.43,24.43,0,0,1,281.72,76a19.63,19.63,0,0,1-7.9-8.24,27.18,27.18,0,0,1-2.76-12.64,27.06,27.06,0,0,1,2.76-12.51,20.42,20.42,0,0,1,7.81-8.39,22.6,22.6,0,0,1,11.83-3A24.53,24.53,0,0,1,302,32.62,19.26,19.26,0,0,1,308.91,37a20,20,0,0,1,4.61,7.33,29.28,29.28,0,0,1,1.66,10.3v3.52h-39V50.2h26.95a9.77,9.77,0,0,0-1.21-4.91,8.76,8.76,0,0,0-3.32-3.35,9.7,9.7,0,0,0-4.92-1.22,9.86,9.86,0,0,0-5.15,1.34A9.57,9.57,0,0,0,285,45.64a10.2,10.2,0,0,0-1.29,5v7.55A12.73,12.73,0,0,0,285,64.09a9.16,9.16,0,0,0,3.62,3.85,11,11,0,0,0,5.56,1.35,12.1,12.1,0,0,0,3.91-.6,8.06,8.06,0,0,0,3-1.8,8,8,0,0,0,1.93-3l11.85.78a16.14,16.14,0,0,1-3.69,7.44,18.5,18.5,0,0,1-7.16,4.94A26.93,26.93,0,0,1,294,78.86Z"/><path class="b" d="M362,44.93l-11.73.72A6.17,6.17,0,0,0,349,42.93a7.1,7.1,0,0,0-2.6-2,9.2,9.2,0,0,0-3.84-.74,9.49,9.49,0,0,0-5,1.25,3.76,3.76,0,0,0-2,3.32,3.56,3.56,0,0,0,1.32,2.8,10.47,10.47,0,0,0,4.54,1.83l8.36,1.69q6.74,1.38,10,4.45A10.45,10.45,0,0,1,363,63.64a12.6,12.6,0,0,1-2.66,8A17.46,17.46,0,0,1,353.08,77a27.66,27.66,0,0,1-10.63,1.91q-9.17,0-14.6-3.84a14.79,14.79,0,0,1-6.36-10.45l12.6-.66a6.43,6.43,0,0,0,2.77,4.25,11.72,11.72,0,0,0,11.05.15A4,4,0,0,0,350,64.93a3.58,3.58,0,0,0-1.47-2.87,10.75,10.75,0,0,0-4.45-1.73l-8-1.59q-6.76-1.37-10.06-4.69a11.63,11.63,0,0,1-3.3-8.52,12.34,12.34,0,0,1,2.43-7.66,15.34,15.34,0,0,1,6.82-5,28,28,0,0,1,10.33-1.74q8.76,0,13.79,3.7A14.27,14.27,0,0,1,362,44.93Z"/><path class="b" d="M395.68,31.76v9.62H367.86V31.76Zm-21.5-11.07H387V63.76a5.75,5.75,0,0,0,.54,2.75,3,3,0,0,0,1.52,1.37,6.1,6.1,0,0,0,2.27.39,9.32,9.32,0,0,0,1.81-.17l1.38-.25,2,9.53c-.64.2-1.54.44-2.7.71a23.62,23.62,0,0,1-4.24.5,19.43,19.43,0,0,1-8.11-1.24,11.34,11.34,0,0,1-5.4-4.39,13.44,13.44,0,0,1-1.89-7.52Z"/><path class="a" d="M217.2,151.09V89.5h24.3A26.4,26.4,0,0,1,253.42,92,17.63,17.63,0,0,1,261,99a21,21,0,0,1,2.6,10.63,20,20,0,0,1-2.65,10.54,17.14,17.14,0,0,1-7.65,6.76,28.42,28.42,0,0,1-12.1,2.34H224.9V118.8h14.16a16.32,16.32,0,0,0,6.2-1,7.44,7.44,0,0,0,3.68-3.06,9.84,9.84,0,0,0,1.22-5.09,10.19,10.19,0,0,0-1.22-5.17,7.74,7.74,0,0,0-3.7-3.2,15.47,15.47,0,0,0-6.24-1.1h-8.78v50.94Zm33.26-28,15.31,28H251.39l-15-28Z"/><path class="a" d="M292.8,152a24.4,24.4,0,0,1-12.25-2.91,19.63,19.63,0,0,1-7.9-8.24,27.15,27.15,0,0,1-2.76-12.64,27.06,27.06,0,0,1,2.76-12.51,20.42,20.42,0,0,1,7.81-8.39,22.57,22.57,0,0,1,11.83-3,24.53,24.53,0,0,1,8.53,1.46,19.22,19.22,0,0,1,6.91,4.37,19.89,19.89,0,0,1,4.62,7.33,29.28,29.28,0,0,1,1.65,10.3v3.52H275v-7.94h26.94a9.87,9.87,0,0,0-1.2-4.91,8.76,8.76,0,0,0-3.32-3.35,9.73,9.73,0,0,0-4.92-1.22,9.92,9.92,0,0,0-5.16,1.34,9.62,9.62,0,0,0-3.5,3.58,10.2,10.2,0,0,0-1.29,5v7.55a12.86,12.86,0,0,0,1.27,5.92,9.13,9.13,0,0,0,3.63,3.85,11,11,0,0,0,5.56,1.35,12.1,12.1,0,0,0,3.91-.6,8.14,8.14,0,0,0,3-1.8,7.87,7.87,0,0,0,1.92-2.95l11.85.78a16.21,16.21,0,0,1-3.68,7.45,18.67,18.67,0,0,1-7.16,4.93A27,27,0,0,1,292.8,152Z"/><path class="a" d="M343.23,152A23.43,23.43,0,0,1,331,149a20.08,20.08,0,0,1-7.82-8.4,29.61,29.61,0,0,1,0-24.86,20.41,20.41,0,0,1,7.84-8.39,23.22,23.22,0,0,1,12.08-3,24,24,0,0,1,10.59,2.2,17.66,17.66,0,0,1,7.19,6.16,18.15,18.15,0,0,1,2.92,9.32H351.78a9.51,9.51,0,0,0-2.7-5.58,7.82,7.82,0,0,0-5.69-2.12,8.59,8.59,0,0,0-5.19,1.61,10.44,10.44,0,0,0-3.45,4.68,20,20,0,0,0-1.23,7.43,20.68,20.68,0,0,0,1.22,7.52,10.4,10.4,0,0,0,3.44,4.72,8.63,8.63,0,0,0,5.21,1.62,8.54,8.54,0,0,0,3.95-.9,7.74,7.74,0,0,0,2.92-2.63,10,10,0,0,0,1.52-4.17h12.09a18.89,18.89,0,0,1-2.88,9.31,17.41,17.41,0,0,1-7.08,6.27A23.69,23.69,0,0,1,343.23,152Z"/><path class="a" d="M393.16,152a24.47,24.47,0,0,1-12.26-2.91,19.55,19.55,0,0,1-7.89-8.24,27,27,0,0,1-2.77-12.64A26.94,26.94,0,0,1,373,115.7a20.33,20.33,0,0,1,7.8-8.39,22.61,22.61,0,0,1,11.84-3,24.47,24.47,0,0,1,8.52,1.46,19.26,19.26,0,0,1,6.92,4.37,20.15,20.15,0,0,1,4.62,7.33,29.28,29.28,0,0,1,1.65,10.3v3.52h-39v-7.94H402.3a9.87,9.87,0,0,0-1.2-4.91,8.78,8.78,0,0,0-3.33-3.35,9.69,9.69,0,0,0-4.91-1.22,9.87,9.87,0,0,0-5.16,1.34,9.62,9.62,0,0,0-3.5,3.58,10.1,10.1,0,0,0-1.3,5v7.55a12.86,12.86,0,0,0,1.28,5.92,9.11,9.11,0,0,0,3.62,3.85,11,11,0,0,0,5.57,1.35,12.19,12.19,0,0,0,3.91-.6,8.09,8.09,0,0,0,3-1.8,7.77,7.77,0,0,0,1.93-2.95l11.85.78a16.13,16.13,0,0,1-3.69,7.45,18.63,18.63,0,0,1-7.15,4.93A27,27,0,0,1,393.16,152Z"/><path class="a" d="M429.19,99a7,7,0,0,1-4.91-1.9,6.15,6.15,0,0,1,0-9.15,7.23,7.23,0,0,1,9.79,0,6.18,6.18,0,0,1,0,9.16A6.88,6.88,0,0,1,429.19,99Zm-6.47,52.14V104.9h12.81v46.19Z"/><path class="a" d="M445.75,168.42V104.9h12.64v7.76H459a17,17,0,0,1,2.45-3.8,12.7,12.7,0,0,1,4.21-3.25,14.35,14.35,0,0,1,6.48-1.31,17.47,17.47,0,0,1,9.32,2.63,18.43,18.43,0,0,1,6.83,7.91,30.34,30.34,0,0,1,2.55,13.22,30.61,30.61,0,0,1-2.48,13,18.53,18.53,0,0,1-6.73,8,17.26,17.26,0,0,1-9.52,2.73,14.55,14.55,0,0,1-6.33-1.24,13,13,0,0,1-4.26-3.11,15.46,15.46,0,0,1-2.52-3.8h-.39v24.72ZM458.3,128a20.67,20.67,0,0,0,1.14,7.19,10.5,10.5,0,0,0,3.31,4.76,9,9,0,0,0,10.55,0,10.65,10.65,0,0,0,3.3-4.81,23,23,0,0,0,0-14.15,10.43,10.43,0,0,0-3.28-4.75,8.32,8.32,0,0,0-5.32-1.72,8.41,8.41,0,0,0-5.28,1.66,10.34,10.34,0,0,0-3.29,4.69A20.37,20.37,0,0,0,458.3,128Z"/><path class="a" d="M523.88,104.9v9.62H496.07V104.9Zm-21.5-11.07h12.81V136.9a5.75,5.75,0,0,0,.54,2.75,3,3,0,0,0,1.52,1.37,6.1,6.1,0,0,0,2.27.39,10,10,0,0,0,1.81-.16l1.38-.26,2,9.53c-.64.2-1.55.44-2.71.71a22.64,22.64,0,0,1-4.24.5,19.27,19.27,0,0,1-8.11-1.24,11.27,11.27,0,0,1-5.39-4.39,13.36,13.36,0,0,1-1.9-7.52Z"/><path class="a" d="M217.2,224.23V162.64h24.3a24.78,24.78,0,0,1,11.94,2.67,18.42,18.42,0,0,1,7.53,7.36,22.13,22.13,0,0,1,2.6,10.85,21.61,21.61,0,0,1-2.65,10.82,18.19,18.19,0,0,1-7.65,7.31,25.9,25.9,0,0,1-12.1,2.62H225.68V193.83h13.38a13.11,13.11,0,0,0,6.21-1.31,8.54,8.54,0,0,0,3.67-3.64,12.41,12.41,0,0,0,0-10.73,8.39,8.39,0,0,0-3.68-3.58,13.59,13.59,0,0,0-6.26-1.28h-8.78v50.94Z"/><path class="a" d="M283.75,225.11a19.14,19.14,0,0,1-7.88-1.55,12.43,12.43,0,0,1-5.46-4.6,13.69,13.69,0,0,1-2-7.63,13.36,13.36,0,0,1,1.42-6.46,11.37,11.37,0,0,1,3.84-4.21,18.82,18.82,0,0,1,5.55-2.41,42.08,42.08,0,0,1,6.54-1.14q4-.42,6.5-.8a8.94,8.94,0,0,0,3.58-1.13A2.51,2.51,0,0,0,297,193v-.18a5.56,5.56,0,0,0-1.79-4.42,7.42,7.42,0,0,0-5.07-1.57,9,9,0,0,0-5.5,1.52,7.18,7.18,0,0,0-2.71,3.81l-11.84-1a16.27,16.27,0,0,1,3.54-7.29,17.28,17.28,0,0,1,6.85-4.75,26.21,26.21,0,0,1,9.72-1.67,29.86,29.86,0,0,1,7.39.9,19.49,19.49,0,0,1,6.28,2.8,13.56,13.56,0,0,1,4.35,4.86,14.75,14.75,0,0,1,1.59,7.08v31.15H297.61v-6.4h-.36a12.71,12.71,0,0,1-3,3.8,13.2,13.2,0,0,1-4.48,2.56A18.26,18.26,0,0,1,283.75,225.11Zm3.67-8.84a10.67,10.67,0,0,0,5-1.13,8.75,8.75,0,0,0,3.4-3,8,8,0,0,0,1.23-4.37v-4.9a6.57,6.57,0,0,1-1.64.71c-.69.21-1.47.4-2.33.57s-1.72.32-2.58.45l-2.35.35a15.89,15.89,0,0,0-3.94,1,6.45,6.45,0,0,0-2.62,1.94,4.83,4.83,0,0,0-.93,3,4.61,4.61,0,0,0,1.91,4A8.14,8.14,0,0,0,287.42,216.27Z"/><path class="a" d="M319.72,224.23V178h12.42v8.06h.48a11.94,11.94,0,0,1,4.24-6.51,11.21,11.21,0,0,1,6.86-2.21,19.33,19.33,0,0,1,2.07.12,15,15,0,0,1,2,.33V189.2a17.14,17.14,0,0,0-2.5-.48,22.51,22.51,0,0,0-2.92-.21,10.22,10.22,0,0,0-5,1.22,9,9,0,0,0-3.48,3.38,9.56,9.56,0,0,0-1.28,5v26.13Z"/><path class="a" d="M392.76,191.21l-11.72.73a6.34,6.34,0,0,0-1.3-2.73,7.1,7.1,0,0,0-2.6-2,9.15,9.15,0,0,0-3.83-.74,9.52,9.52,0,0,0-5,1.25,3.76,3.76,0,0,0-2,3.32,3.56,3.56,0,0,0,1.32,2.8,10.64,10.64,0,0,0,4.54,1.84l8.36,1.68q6.74,1.38,10.05,4.45a10.49,10.49,0,0,1,3.31,8.06,12.61,12.61,0,0,1-2.67,8,17.4,17.4,0,0,1-7.27,5.34,27.69,27.69,0,0,1-10.63,1.91q-9.18,0-14.6-3.84a14.84,14.84,0,0,1-6.37-10.45l12.61-.66a6.43,6.43,0,0,0,2.76,4.26,11.8,11.8,0,0,0,11.05.15,4,4,0,0,0,2.09-3.39,3.58,3.58,0,0,0-1.47-2.87,10.75,10.75,0,0,0-4.45-1.73l-8-1.59q-6.76-1.35-10.06-4.69a11.65,11.65,0,0,1-3.29-8.51,12.34,12.34,0,0,1,2.42-7.67,15.28,15.28,0,0,1,6.83-5,27.79,27.79,0,0,1,10.33-1.75q8.75,0,13.78,3.7A14.29,14.29,0,0,1,392.76,191.21Z"/><path class="a" d="M423,225.14a24.47,24.47,0,0,1-12.26-2.91,19.55,19.55,0,0,1-7.89-8.24,29.93,29.93,0,0,1,0-25.15,20.33,20.33,0,0,1,7.8-8.39,22.61,22.61,0,0,1,11.84-3A24.47,24.47,0,0,1,431,178.9a19.26,19.26,0,0,1,6.92,4.37,20,20,0,0,1,4.61,7.33,29,29,0,0,1,1.66,10.3v3.52h-39v-7.94h27a9.87,9.87,0,0,0-1.2-4.91,8.78,8.78,0,0,0-3.33-3.35,9.69,9.69,0,0,0-4.91-1.22,9.87,9.87,0,0,0-5.16,1.34,9.54,9.54,0,0,0-3.5,3.58,10.1,10.1,0,0,0-1.3,5v7.55a12.86,12.86,0,0,0,1.28,5.92,9.11,9.11,0,0,0,3.62,3.85,11,11,0,0,0,5.57,1.35,12.19,12.19,0,0,0,3.91-.6,8.09,8.09,0,0,0,3-1.8,7.77,7.77,0,0,0,1.93-2.95l11.85.78a16.13,16.13,0,0,1-3.69,7.45,18.63,18.63,0,0,1-7.15,4.93A27,27,0,0,1,423,225.14Z"/><path class="a" d="M452.52,224.23V178h12.42v8.06h.48a12,12,0,0,1,4.24-6.51,11.23,11.23,0,0,1,6.86-2.21,19.33,19.33,0,0,1,2.07.12,14.74,14.74,0,0,1,2,.33V189.2a16.87,16.87,0,0,0-2.5-.48,22.39,22.39,0,0,0-2.92-.21,10.15,10.15,0,0,0-5,1.22,9,9,0,0,0-3.49,3.38,9.65,9.65,0,0,0-1.28,5v26.13Z"/></svg>